<?xml version="1.0" encoding="UTF-8" standalone="no"?>
<svg
   version="1.1"
   id="Layer_1"
   x="0px"
   y="0px"
   width="100%"
   viewBox="0 0 810 814"
   enable-background="new 0 0 810 814"
   xml:space="preserve"
   sodipodi:docname="Waddle Mascot var3 (1).svg"
   inkscape:version="1.3 (0e150ed6c4, 2023-07-21)"
   xmlns:inkscape="http://www.inkscape.org/namespaces/inkscape"
   xmlns:sodipodi="http://sodipodi.sourceforge.net/DTD/sodipodi-0.dtd"
   xmlns="http://www.w3.org/2000/svg"
   xmlns:svg="http://www.w3.org/2000/svg"><defs
   id="defs17" /><sodipodi:namedview
   id="namedview17"
   pagecolor="#ffffff"
   bordercolor="#000000"
   borderopacity="0.25"
   inkscape:showpageshadow="2"
   inkscape:pageopacity="0.0"
   inkscape:pagecheckerboard="0"
   inkscape:deskcolor="#d1d1d1"
   inkscape:zoom="0.95454545"
   inkscape:cx="405.42857"
   inkscape:cy="323.19048"
   inkscape:window-width="1920"
   inkscape:window-height="991"
   inkscape:window-x="2391"
   inkscape:window-y="-9"
   inkscape:window-maximized="1"
   inkscape:current-layer="Layer_1" />&#10;<path
   fill="#66c8f5"
   opacity="1"
   stroke="none"
   d="M 56,815 C 37.687355,815 19.374714,815 1,815 1,704.31244 1,593.62488 1.298733,482.38025 1.398313,481.54877 1.199161,481.27438 1.000004,481 1,477.6387 1,474.27744 1.314284,470.78748 c 1.101695,-2.03464 2.412992,-3.89203 2.595147,-5.85425 1.742052,-18.76554 7.984127,-36.3078 15.441361,-53.30347 4.88253,-11.12775 11.784735,-21.36493 17.715507,-32.03815 8.147168,-14.66189 19.777634,-26.56991 31.463326,-38.1998 14.155037,-14.08743 30.766952,-25.23394 48.566175,-34.26144 11.00263,-5.58035 22.58927,-10.04877 34.06257,-14.64481 5.63965,-2.25915 11.53156,-4.06481 17.46451,-5.37051 7.26193,-1.59817 14.68649,-2.45731 22.22345,-3.66528 0.048,-0.59442 0.13801,-1.23426 0.1458,-1.87506 0.34089,-28.08194 0.0461,-56.19205 1.2984,-84.23308 0.5507,-12.33104 3.72213,-24.65114 6.69523,-36.73219 2.13822,-8.6886 6.0428,-16.93088 8.9392,-25.44715 5.12568,-15.07096 13.56921,-28.41098 22.18402,-41.544652 9.31434,-14.200135 20.82377,-26.692093 33.68072,-37.816059 6.76212,-5.85064 13.55164,-11.840107 21.06125,-16.614964 10.44577,-6.641777 21.33618,-12.706682 32.49045,-18.074867 9.78717,-4.710264 19.99991,-8.786405 30.39487,-11.910985 9.71045,-2.918829 19.91348,-4.191225 29.87616,-6.299397 C 378.1835,2.780523 378.54239,1.656923 379,1.000005 398.68756,1 418.37512,1 438.19324,1.321531 c 1.12329,0.773204 2.07452,1.42342 3.11618,1.641568 4.12048,0.862925 8.3248,1.373852 12.39496,2.417362 6.64059,1.702509 13.11688,4.119177 19.81185,5.521261 14.08313,2.949337 26.4545,9.778974 38.62012,16.861078 10.59235,6.16622 21.1062,12.701655 30.71527,20.267248 14.18421,11.167817 26.53174,24.301693 37.54645,38.727467 10.68207,13.990215 19.52753,28.972385 26.59113,45.032825 4.35113,9.89325 8.47332,19.83191 10.32031,30.65175 1.75873,10.30321 5.67566,20.36215 6.41455,30.68802 1.31329,18.35115 1.01868,36.82189 1.24817,55.24443 0.14697,11.79636 0.0275,23.59601 0.0275,34.88877 9.15936,2.25143 17.79711,4.31158 26.39929,6.51089 5.92743,1.5155 12.05762,2.62527 17.64935,4.97992 9.44989,3.97931 18.86823,8.24799 27.70563,13.4119 10.41949,6.08841 20.5083,12.85336 30.1944,20.05902 12.90429,9.59961 24.50347,20.72769 34.30194,33.5531 6.71789,8.79312 14.08075,17.30774 19.36157,26.93115 6.80524,12.40131 11.83832,25.77722 17.59686,38.75021 5.96106,13.42939 8.79114,27.66748 10.88239,42.10553 0.12823,0.88526 1.24951,1.62665 1.90881,2.43497 0,10.02091 0,20.04178 -0.28528,30.39587 -0.0951,0.75684 0.0951,1.18048 0.28528,1.60413 0,103.54297 0,207.08594 0,311 -18.35254,0 -36.70764,0 -55.53137,-0.46863 -0.46863,-105.95306 -0.4256,-211.4375 -0.55634,-316.92169 -0.01,-7.81934 -0.28375,-15.88376 -2.16662,-23.40042 -3.18293,-12.70633 -7.16199,-25.29267 -11.87262,-37.51862 -7.36408,-19.11264 -19.37745,-35.46026 -33.73505,-49.83188 -20.55988,-20.58004 -45.08362,-35.03372 -73.19263,-42.60354 -9.98071,-2.68775 -20.59387,-3.35166 -30.97882,-4.0986 -6.86596,-0.49378 -13.85376,0.9664 -20.76245,0.75415 -17.76025,-0.5456 -34.47748,4.56948 -50.58307,10.6434 -13.75805,5.1886 -26.49783,13.14828 -38.11187,22.56595 -22.6417,18.35986 -39.42002,41.06274 -50.00501,68.14129 -3.36694,8.61338 -4.9595,17.90866 -7.58322,26.82743 -2.93094,9.96304 -3.97012,20.09497 -3.96329,30.45761 C 432.02701,604.69763 432,709.84882 432,815 c -17.35422,0 -34.70847,0 -52.53134,-0.46863 -0.46866,-107.96081 -0.4361,-215.453 -0.56052,-322.94498 -0.007,-5.64572 -0.78586,-11.43344 -2.1878,-16.90329 -2.50434,-9.77114 -5.19831,-19.56844 -8.85331,-28.94949 -3.84314,-9.86401 -8.4151,-19.52475 -13.54678,-28.78778 -8.46249,-15.27533 -20.03247,-28.31454 -33.55661,-39.12436 -10.62271,-8.49069 -22.31512,-15.8822 -34.29202,-22.35666 -8.17526,-4.41937 -17.61356,-6.55914 -26.57373,-9.44961 -5.94057,-1.91635 -11.96318,-4.35831 -18.07503,-4.79282 -10.96025,-0.7792 -22.02382,0.0476 -33.02879,-0.29349 -14.08336,-0.43643 -27.2706,3.28421 -40.74085,6.74311 -13.41775,3.44546 -25.20086,9.77563 -36.75961,16.70224 -13.59143,8.14471 -25.26331,18.79748 -35.761994,30.63946 -9.422943,10.62866 -17.479294,22.28214 -23.156059,35.32425 -3.695038,8.48917 -6.113541,17.52707 -9.648411,26.09451 -4.657905,11.28937 -6.51046,23.22974 -6.544681,35.09131 C 55.87141,599.34845 56,707.17444 56,815 M 290.4549,108.03123 c -7.83826,9.84568 -16.81006,18.86371 -22.36091,30.38421 -3.75415,7.7915 -7.87612,15.44915 -10.99252,23.49256 -3.22388,8.32088 -6.58946,16.63347 -7.29495,25.82279 -0.46173,6.01437 -3.52657,11.89201 -3.62422,17.86035 -0.42244,25.82257 -0.22748,51.65633 -0.0483,77.48457 0.009,1.31543 1.73392,3.42591 3.0432,3.79074 6.97676,1.94413 13.99806,4.1897 21.14989,4.94013 11.79785,1.23791 22.26144,6.23236 32.65463,10.96286 17.95676,8.17316 34.48886,18.77734 49.89667,31.33569 16.09109,13.1153 29.60592,28.29941 41.20254,45.35016 3.89139,5.72156 7.60678,11.56284 11.67365,17.76258 1.14868,-1.73807 2.22912,-3.31693 3.25296,-4.93171 4.48852,-7.07971 8.23443,-14.78473 13.59891,-21.1206 9.47045,-11.18543 19.28311,-22.25034 30.15097,-32.03446 10.2763,-9.25158 21.42135,-17.98129 33.4176,-24.75708 12.44836,-7.03119 25.0993,-14.3042 39.37793,-17.65893 11.55005,-2.71366 22.92175,-6.25598 34.54382,-8.57108 8.7829,-1.74954 8.9032,-1.14548 8.9032,-10.047 0,-19.83038 -0.23554,-39.66458 0.0869,-59.48971 0.19873,-12.22388 -1.651,-24.15227 -4.87713,-35.74846 -2.91986,-10.49547 -6.75745,-20.84935 -11.32837,-30.73973 -4.56653,-9.88095 -9.48401,-19.94704 -16.1695,-28.41452 C 528.1169,112.8187 518.18825,102.77999 507.7336,93.634377 499.61901,86.535812 490.24627,80.541435 480.65459,75.552223 469.32509,69.659073 457.3116,65.34729 444.61461,62.403015 c -10.43368,-2.419437 -20.88076,-4.162762 -31.31768,-4.122097 -13.93345,0.05429 -27.82319,0.911759 -41.72135,4.276676 -13.43259,3.252198 -26.31689,7.270233 -38.52402,13.491242 -15.80883,8.056541 -29.48553,19.070442 -42.59664,31.982394 z"
   id="path1"
   style="display:inline" />&#10;&#10;&#10;&#10;&#10;<path
   fill="#000000"
   opacity="1.000000"
   stroke="none"
   d=" M1.000004,481.250000   C1.199161,481.274384 1.398313,481.548767 1.298733,481.911560   C1.000000,482.000000 1.000000,481.500000 1.000004,481.250000  z"
   id="path6" />&#10;<path
   fill="#000000"
   opacity="1.000000"
   stroke="none"
   d=" M811.000000,503.750000   C810.809814,503.576355 810.619629,503.152710 810.714722,502.864502   C811.000000,503.000000 811.000000,503.500000 811.000000,503.750000  z"
   id="path7" />&#10;&#10;<path
   fill="#66C8F5"
   opacity="1.000000"
   stroke="none"
   d=" M229.707886,575.797729   C225.676636,583.718811 221.920502,591.368347 217.579651,600.208679   C205.695114,576.933716 194.392303,554.798096 182.899796,532.290894   C205.963181,532.290894 228.694870,532.290894 251.922775,532.290894   C244.607590,546.706482 237.295288,561.116333 229.707886,575.797729  z"
   id="path9" />&#10;<path
   fill="#66C8F5"
   opacity="1.000000"
   stroke="none"
   d=" M161.301300,477.290344   C152.962173,486.396179 140.245010,484.747314 133.307709,473.379425   C128.234100,465.065521 137.073380,451.668488 146.795456,450.833130   C154.974945,450.130280 160.049637,453.941193 164.311584,459.898102   C166.456741,462.896301 164.707001,472.838470 161.301300,477.290344  z"
   id="path10"
   inkscape:label="path10" />&#10;<path
   fill="#66C8F5"
   opacity="1.000000"
   stroke="none"
   d=" M294.583679,453.229065   C299.182068,455.997772 302.861450,463.267334 301.923309,467.935852   C300.000275,477.505554 298.081085,480.202118 288.671173,482.940979   C281.057983,485.156891 269.594818,477.500275 269.643890,468.047333   C269.705231,456.235809 278.688690,449.062836 290.455658,451.074127   C291.788635,451.301971 292.979553,452.361298 294.583679,453.229065  z"
   id="path11"
   inkscape:label="path11" />&#10;<path
   fill="#66C8F5"
   opacity="1.000000"
   stroke="none"
   d=" M560.729919,535.359985   C560.101685,534.156921 559.686951,533.303467 559.148865,532.196045   C582.092468,532.196045 604.813599,532.196045 628.332031,532.196045   C616.960205,554.651245 605.749268,576.788757 593.852722,600.280212   C582.593018,578.187805 571.768250,556.948669 560.729919,535.359985  z"
   id="path12" />&#10;<path
   fill="#66C8F5"
   opacity="1.000000"
   stroke="none"
   d=" M510.961609,474.817780   C505.122101,463.780060 512.620850,451.003174 524.642212,451.000183   C536.942688,450.997162 545.609741,462.604614 540.713867,473.324463   C538.447388,478.287109 534.368103,482.530212 528.158264,482.965790   C522.147888,483.387421 516.514648,482.440094 512.579773,477.134125   C512.089172,476.472565 511.548920,475.847870 510.961609,474.817780  z"
   id="path13" />&#10;<path
   fill="#66C8F5"
   opacity="1.000000"
   stroke="none"
   d=" M352.862122,194.528534   C347.983673,201.394638 341.165009,201.672562 334.130341,200.962280   C328.569366,200.400772 322.044495,190.071899 323.011322,184.018509   C324.695557,173.473694 333.044617,167.877533 341.972992,168.926102   C347.228607,169.543335 355.228760,177.165924 354.915710,182.428482   C354.681427,186.366623 353.679260,190.259094 352.862122,194.528534  z"
   id="path17"
   inkscape:label="path17" /><path
   fill="#66C8F5"
   opacity="1.000000"
   stroke="none"
   d=" M653.392822,453.244507   C658.679260,449.761841 664.535889,449.576050 669.092468,452.062744   C674.974426,455.272766 678.980835,460.559998 678.214172,468.470367   C677.823853,472.497772 676.760986,476.056824 673.828674,478.107727   C670.380310,480.519653 666.158936,482.746399 662.090332,483.132996   C656.193420,483.693390 645.536743,477.290588 645.807190,468.624023   C646.009338,462.146149 647.664490,457.105042 653.392822,453.244507  z"
   id="path14" />&#10;<path
   fill="#66C8F5"
   opacity="1.000000"
   stroke="none"
   d=" M423.308105,288.251221   C418.609253,297.261078 414.179413,305.982971 409.671143,314.664124   C409.206207,315.559418 408.273560,316.211823 407.557922,316.976990   C406.990723,316.186127 406.320862,315.449310 405.871429,314.596405   C397.934204,299.532532 389.935059,284.500092 382.152679,269.356384   C379.167389,263.547363 376.689941,257.477356 373.868195,251.278198   C396.774780,251.278198 419.264984,251.278198 442.292755,251.278198   C436.169891,262.862793 430.267212,274.004486 424.408112,285.169067   C423.965057,286.013306 423.831970,287.020264 423.308105,288.251221  z"
   id="path15"
   inkscape:label="path15" />&#10;<path
   fill="#67C8F5"
   opacity="1.000000"
   stroke="none"
   d=" M460.001465,181.524811   C463.601135,171.740997 471.908966,166.909698 480.755981,169.021484   C484.585785,169.935654 491.457336,177.454117 491.959381,181.555511   C492.873505,189.023102 491.596588,195.566086 484.123993,199.459656   C477.486084,202.918304 468.269775,201.845627 463.196411,195.792145   C459.596283,191.496552 459.978912,186.810593 460.001465,181.524811  z"
   id="path16" />&#10;&#10;</svg>
